<svg width="365" height="39" viewBox="0 0 365 39" fill="none" xmlns="http://www.w3.org/2000/svg">
<path d="M16.32 12.56C18.88 12.56 21.008 13.632 22.704 15.776C24.432 17.888 25.296 21.104 25.296 25.424C25.296 28.464 24.8 30.96 23.808 32.912C22.816 34.864 21.488 36.32 19.824 37.28C18.192 38.208 16.416 38.672 14.496 38.672C12.992 38.672 11.552 38.304 10.176 37.568C8.8 36.8 7.744 35.648 7.008 34.112L7.872 34.352C8.576 35.44 9.456 36.256 10.512 36.8C11.568 37.344 12.64 37.616 13.728 37.616C15.744 37.616 17.248 36.64 18.24 34.688C19.264 32.736 19.776 29.728 19.776 25.664C19.776 23.008 19.568 20.832 19.152 19.136C18.768 17.44 18.176 16.208 17.376 15.44C16.608 14.64 15.632 14.24 14.448 14.24C13.072 14.24 11.808 14.832 10.656 16.016C9.504 17.2 8.816 18.912 8.592 21.152L8.112 20.144C8.56 17.744 9.52 15.888 10.992 14.576C12.496 13.232 14.272 12.56 16.32 12.56ZM8.88 0.415998V36.032C8.336 36.224 7.776 36.464 7.2 36.752C6.624 37.04 6.08 37.36 5.568 37.712C5.056 38.032 4.576 38.384 4.128 38.768L3.36 38.384C3.488 37.936 3.568 37.488 3.6 37.04C3.664 36.592 3.696 36.128 3.696 35.648V6.176C3.696 4.736 3.44 3.68 2.928 3.008C2.448 2.304 1.552 1.952 0.24 1.952V0.943999C1.264 1.04 2.256 1.088 3.216 1.088C4.272 1.088 5.28 1.04 6.24 0.943999C7.2 0.815999 8.08 0.639998 8.88 0.415998ZM34.4779 1.136C35.4699 1.136 36.3019 1.456 36.9739 2.096C37.6459 2.704 37.9819 3.472 37.9819 4.4C37.9819 5.328 37.6459 6.112 36.9739 6.752C36.3019 7.36 35.4699 7.664 34.4779 7.664C33.4859 7.664 32.6539 7.36 31.9819 6.752C31.3099 6.112 30.9739 5.328 30.9739 4.4C30.9739 3.472 31.3099 2.704 31.9819 2.096C32.6539 1.456 33.4859 1.136 34.4779 1.136ZM37.3579 12.704V33.536C37.3579 34.88 37.6139 35.792 38.1259 36.272C38.6699 36.752 39.5659 36.992 40.8139 36.992V38C40.2699 37.968 39.4219 37.936 38.2699 37.904C37.1499 37.84 35.9979 37.808 34.8139 37.808C33.6939 37.808 32.5419 37.84 31.3579 37.904C30.1739 37.936 29.2939 37.968 28.7179 38V36.992C29.9659 36.992 30.8459 36.752 31.3579 36.272C31.9019 35.792 32.1739 34.88 32.1739 33.536V18.464C32.1739 17.024 31.9339 15.968 31.4539 15.296C30.9739 14.592 30.0619 14.24 28.7179 14.24V13.232C29.7419 13.328 30.7339 13.376 31.6939 13.376C32.7819 13.376 33.7899 13.328 34.7179 13.232C35.6779 13.104 36.5579 12.928 37.3579 12.704ZM58.5645 12.56C59.4925 12.56 60.2765 12.752 60.9165 13.136C61.5885 13.52 62.0845 14.016 62.4045 14.624C62.7565 15.2 62.9325 15.856 62.9325 16.592C62.9325 17.52 62.6445 18.32 62.0685 18.992C61.5245 19.632 60.7885 19.952 59.8605 19.952C59.0605 19.952 58.3725 19.712 57.7965 19.232C57.2525 18.752 56.9805 18.096 56.9805 17.264C56.9805 16.56 57.1565 15.968 57.5085 15.488C57.8925 14.976 58.3245 14.576 58.8045 14.288C58.4845 14.032 58.1005 13.92 57.6525 13.952C56.7885 13.984 55.9885 14.272 55.2525 14.816C54.5165 15.328 53.8925 16 53.3805 16.832C52.8685 17.632 52.4685 18.496 52.1805 19.424C51.8925 20.352 51.7485 21.216 51.7485 22.016V33.056C51.7485 34.624 52.1805 35.68 53.0445 36.224C53.9085 36.736 55.1085 36.992 56.6445 36.992V38C55.9085 37.968 54.8525 37.936 53.4765 37.904C52.1325 37.84 50.7085 37.808 49.2045 37.808C48.0525 37.808 46.9005 37.84 45.7485 37.904C44.5965 37.936 43.7165 37.968 43.1085 38V36.992C44.3565 36.992 45.2365 36.752 45.7485 36.272C46.2925 35.792 46.5645 34.88 46.5645 33.536V18.464C46.5645 17.024 46.3245 15.968 45.8445 15.296C45.3645 14.592 44.4525 14.24 43.1085 14.24V13.232C44.1325 13.328 45.1245 13.376 46.0845 13.376C47.1725 13.376 48.1805 13.328 49.1085 13.232C50.0685 13.104 50.9485 12.928 51.7485 12.704V18.224C52.1325 17.296 52.6445 16.4 53.2845 15.536C53.9245 14.672 54.6925 13.968 55.5885 13.424C56.4845 12.848 57.4765 12.56 58.5645 12.56ZM73.2116 5.312V13.28H79.8356V14.24H73.2116V33.104C73.2116 34.416 73.4516 35.344 73.9316 35.888C74.4116 36.432 75.0996 36.704 75.9956 36.704C76.8276 36.704 77.5636 36.368 78.2036 35.696C78.8756 35.024 79.4516 33.888 79.9316 32.288L80.8436 32.624C80.4596 34.32 79.7716 35.76 78.7796 36.944C77.8196 38.096 76.3956 38.672 74.5076 38.672C73.4196 38.672 72.5076 38.528 71.7716 38.24C71.0356 37.984 70.3956 37.6 69.8516 37.088C69.1476 36.352 68.6676 35.472 68.4116 34.448C68.1556 33.424 68.0276 32.064 68.0276 30.368V14.24H63.6116V13.28H68.0276V6.272C69.0196 6.24 69.9476 6.16 70.8116 6.032C71.6756 5.872 72.4756 5.632 73.2116 5.312ZM90.0375 0.415998V17.888C90.8375 15.904 91.9575 14.528 93.3975 13.76C94.8695 12.96 96.4215 12.56 98.0535 12.56C99.3335 12.56 100.374 12.736 101.174 13.088C102.006 13.408 102.694 13.856 103.238 14.432C103.814 15.04 104.23 15.824 104.486 16.784C104.742 17.744 104.87 19.04 104.87 20.672V33.536C104.87 34.88 105.126 35.792 105.638 36.272C106.182 36.752 107.078 36.992 108.326 36.992V38C107.75 37.968 106.886 37.936 105.734 37.904C104.582 37.84 103.462 37.808 102.374 37.808C101.254 37.808 100.15 37.84 99.0615 37.904C98.0055 37.936 97.2215 37.968 96.7095 38V36.992C97.7975 36.992 98.5655 36.752 99.0135 36.272C99.4615 35.792 99.6855 34.88 99.6855 33.536V19.328C99.6855 18.4 99.6055 17.568 99.4455 16.832C99.2855 16.064 98.9335 15.456 98.3895 15.008C97.8775 14.528 97.1095 14.288 96.0855 14.288C94.9335 14.288 93.8935 14.624 92.9655 15.296C92.0695 15.936 91.3495 16.832 90.8055 17.984C90.2935 19.136 90.0375 20.448 90.0375 21.92V33.536C90.0375 34.88 90.2615 35.792 90.7095 36.272C91.1575 36.752 91.9255 36.992 93.0135 36.992V38C92.4695 37.968 91.6695 37.936 90.6135 37.904C89.5895 37.84 88.5335 37.808 87.4455 37.808C86.3255 37.808 85.1735 37.84 83.9895 37.904C82.8375 37.936 81.9735 37.968 81.3975 38V36.992C82.6455 36.992 83.5255 36.752 84.0375 36.272C84.5815 35.792 84.8535 34.88 84.8535 33.536V6.176C84.8535 4.736 84.5975 3.68 84.0855 3.008C83.6055 2.304 82.7095 1.952 81.3975 1.952V0.943999C82.4215 1.04 83.4135 1.088 84.3735 1.088C85.4295 1.088 86.4375 1.04 87.3975 0.943999C88.3575 0.815999 89.2375 0.639998 90.0375 0.415998ZM119.748 13.232V14.24C118.98 14.24 118.292 14.304 117.684 14.432C117.108 14.528 116.724 14.816 116.532 15.296C116.372 15.776 116.5 16.624 116.916 17.84L121.764 32.144L121.332 32.336L127.908 13.088L128.868 13.52L120.564 38.192C120.308 38.192 120.052 38.192 119.796 38.192C119.54 38.192 119.268 38.192 118.98 38.192L111.204 16.928C110.692 15.648 110.18 14.88 109.668 14.624C109.188 14.368 108.772 14.24 108.42 14.24V13.232C109.188 13.328 109.972 13.408 110.772 13.472C111.604 13.504 112.516 13.52 113.508 13.52C114.5 13.52 115.54 13.488 116.628 13.424C117.748 13.36 118.788 13.296 119.748 13.232ZM145.668 13.232V14.192C145.06 14.288 144.484 14.592 143.94 15.104C143.396 15.616 142.916 16.528 142.5 17.84L135.732 38.192C135.476 38.192 135.204 38.192 134.916 38.192C134.66 38.192 134.404 38.192 134.148 38.192L126.708 18.944L127.908 13.088C128.228 13.12 128.532 13.136 128.82 13.136C129.14 13.104 129.46 13.088 129.78 13.088L136.98 32.768L136.548 32.816L140.772 19.76C141.188 18.448 141.348 17.408 141.252 16.64C141.156 15.872 140.82 15.296 140.244 14.912C139.668 14.528 138.804 14.288 137.652 14.192V13.232C138.228 13.264 138.74 13.296 139.188 13.328C139.668 13.328 140.132 13.344 140.58 13.376C141.06 13.376 141.54 13.376 142.02 13.376C142.724 13.376 143.38 13.36 143.988 13.328C144.628 13.296 145.188 13.264 145.668 13.232ZM152.837 1.136C153.829 1.136 154.661 1.456 155.333 2.096C156.005 2.704 156.341 3.472 156.341 4.4C156.341 5.328 156.005 6.112 155.333 6.752C154.661 7.36 153.829 7.664 152.837 7.664C151.845 7.664 151.013 7.36 150.341 6.752C149.669 6.112 149.333 5.328 149.333 4.4C149.333 3.472 149.669 2.704 150.341 2.096C151.013 1.456 151.845 1.136 152.837 1.136ZM155.717 12.704V33.536C155.717 34.88 155.973 35.792 156.485 36.272C157.029 36.752 157.925 36.992 159.173 36.992V38C158.629 37.968 157.781 37.936 156.629 37.904C155.509 37.84 154.357 37.808 153.173 37.808C152.053 37.808 150.901 37.84 149.717 37.904C148.533 37.936 147.653 37.968 147.077 38V36.992C148.325 36.992 149.205 36.752 149.717 36.272C150.261 35.792 150.533 34.88 150.533 33.536V18.464C150.533 17.024 150.293 15.968 149.813 15.296C149.333 14.592 148.421 14.24 147.077 14.24V13.232C148.101 13.328 149.093 13.376 150.053 13.376C151.141 13.376 152.149 13.328 153.077 13.232C154.037 13.104 154.917 12.928 155.717 12.704ZM170.396 12.56C171.676 12.56 172.78 12.768 173.708 13.184C174.668 13.568 175.356 13.92 175.772 14.24C176.828 15.072 177.484 14.528 177.74 12.608H178.796C178.732 13.504 178.684 14.592 178.652 15.872C178.62 17.12 178.604 18.784 178.604 20.864H177.548C177.356 19.68 177.02 18.528 176.54 17.408C176.092 16.288 175.42 15.36 174.524 14.624C173.66 13.888 172.524 13.52 171.116 13.52C170.06 13.52 169.18 13.824 168.476 14.432C167.772 15.008 167.42 15.872 167.42 17.024C167.42 17.984 167.708 18.816 168.284 19.52C168.86 20.224 169.596 20.88 170.492 21.488C171.42 22.096 172.412 22.752 173.468 23.456C174.652 24.256 175.708 25.056 176.636 25.856C177.596 26.624 178.348 27.488 178.892 28.448C179.468 29.408 179.756 30.528 179.756 31.808C179.756 33.28 179.356 34.528 178.556 35.552C177.788 36.576 176.764 37.36 175.484 37.904C174.204 38.416 172.796 38.672 171.26 38.672C170.492 38.672 169.772 38.592 169.1 38.432C168.428 38.304 167.804 38.128 167.228 37.904C166.876 37.712 166.524 37.52 166.172 37.328C165.852 37.104 165.532 36.896 165.212 36.704C164.892 36.48 164.604 36.512 164.348 36.8C164.092 37.088 163.9 37.6 163.772 38.336H162.716C162.78 37.312 162.828 36.064 162.86 34.592C162.892 33.12 162.908 31.168 162.908 28.736H163.964C164.188 30.496 164.524 32.048 164.972 33.392C165.42 34.736 166.076 35.792 166.94 36.56C167.836 37.296 169.052 37.664 170.588 37.664C171.196 37.664 171.804 37.536 172.412 37.28C173.02 36.992 173.516 36.544 173.9 35.936C174.316 35.328 174.524 34.512 174.524 33.488C174.524 32.08 174.028 30.928 173.036 30.032C172.076 29.104 170.828 28.128 169.292 27.104C168.204 26.336 167.164 25.584 166.172 24.848C165.212 24.08 164.428 23.232 163.82 22.304C163.212 21.344 162.908 20.208 162.908 18.896C162.908 17.456 163.244 16.272 163.916 15.344C164.62 14.416 165.548 13.728 166.7 13.28C167.852 12.8 169.084 12.56 170.396 12.56ZM195.075 12.56C197.891 12.56 200.099 13.408 201.699 15.104C203.299 16.8 204.099 19.488 204.099 23.168H187.539L187.443 22.256H199.011C199.043 20.688 198.915 19.248 198.627 17.936C198.339 16.592 197.891 15.52 197.283 14.72C196.675 13.92 195.875 13.52 194.883 13.52C193.507 13.52 192.307 14.256 191.283 15.728C190.291 17.168 189.683 19.488 189.459 22.688L189.603 22.928C189.571 23.376 189.539 23.872 189.507 24.416C189.475 24.928 189.459 25.44 189.459 25.952C189.459 28.16 189.795 30.016 190.467 31.52C191.139 33.024 192.019 34.16 193.107 34.928C194.195 35.664 195.299 36.032 196.419 36.032C197.283 36.032 198.115 35.904 198.915 35.648C199.747 35.36 200.531 34.896 201.267 34.256C202.003 33.584 202.659 32.672 203.235 31.52L204.195 31.904C203.811 32.992 203.219 34.064 202.419 35.12C201.619 36.176 200.595 37.04 199.347 37.712C198.099 38.352 196.643 38.672 194.979 38.672C192.739 38.672 190.787 38.176 189.123 37.184C187.459 36.16 186.179 34.704 185.283 32.816C184.387 30.928 183.939 28.688 183.939 26.096C183.939 23.248 184.403 20.816 185.331 18.8C186.259 16.784 187.555 15.248 189.219 14.192C190.915 13.104 192.867 12.56 195.075 12.56ZM221.565 8.816C226.845 8.816 230.765 10.032 233.325 12.464C235.885 14.896 237.165 18.416 237.165 23.024C237.165 26.032 236.541 28.656 235.293 30.896C234.045 33.136 232.221 34.88 229.821 36.128C227.453 37.376 224.557 38 221.133 38C220.653 38 219.997 37.984 219.165 37.952C218.333 37.92 217.469 37.904 216.573 37.904C215.677 37.872 214.861 37.856 214.125 37.856C212.973 37.856 211.837 37.872 210.717 37.904C209.597 37.904 208.685 37.936 207.981 38V37.04C209.069 36.976 209.885 36.848 210.429 36.656C210.973 36.464 211.325 36.08 211.485 35.504C211.677 34.928 211.773 34.064 211.773 32.912V13.904C211.773 12.72 211.677 11.84 211.485 11.264C211.325 10.688 210.973 10.304 210.429 10.112C209.885 9.92 209.069 9.808 207.981 9.776V8.816C208.685 8.848 209.597 8.896 210.717 8.96C211.837 8.992 212.941 8.992 214.029 8.96C214.797 8.928 215.645 8.912 216.573 8.912C217.501 8.88 218.413 8.864 219.309 8.864C220.205 8.832 220.957 8.816 221.565 8.816ZM220.557 9.68C219.181 9.68 218.269 9.952 217.821 10.496C217.405 11.04 217.197 12.144 217.197 13.808V33.008C217.197 34.672 217.421 35.776 217.869 36.32C218.317 36.864 219.229 37.136 220.605 37.136C223.453 37.136 225.645 36.608 227.181 35.552C228.749 34.464 229.837 32.896 230.445 30.848C231.085 28.768 231.405 26.224 231.405 23.216C231.405 20.176 231.069 17.664 230.397 15.68C229.725 13.664 228.589 12.16 226.989 11.168C225.421 10.176 223.277 9.68 220.557 9.68ZM257.288 8.144C260.328 8.144 262.984 8.736 265.256 9.92C267.56 11.072 269.336 12.768 270.584 15.008C271.864 17.216 272.504 19.92 272.504 23.12C272.504 26.224 271.848 28.944 270.536 31.28C269.256 33.616 267.464 35.44 265.16 36.752C262.856 38.032 260.216 38.672 257.24 38.672C254.2 38.672 251.544 38.096 249.272 36.944C247 35.76 245.224 34.048 243.944 31.808C242.664 29.568 242.024 26.864 242.024 23.696C242.024 20.592 242.68 17.872 243.992 15.536C245.304 13.2 247.096 11.392 249.368 10.112C251.672 8.8 254.312 8.144 257.288 8.144ZM257.096 9.008C255.208 9.008 253.56 9.632 252.152 10.88C250.776 12.096 249.704 13.792 248.936 15.968C248.168 18.144 247.784 20.656 247.784 23.504C247.784 26.416 248.216 28.944 249.08 31.088C249.976 33.232 251.144 34.896 252.584 36.08C254.056 37.232 255.672 37.808 257.432 37.808C259.32 37.808 260.968 37.2 262.376 35.984C263.784 34.736 264.856 33.024 265.592 30.848C266.36 28.64 266.744 26.128 266.744 23.312C266.744 20.368 266.312 17.84 265.448 15.728C264.584 13.584 263.432 11.936 261.992 10.784C260.552 9.6 258.92 9.008 257.096 9.008ZM305.361 8.816V9.776C304.273 9.84 303.441 10.032 302.865 10.352C302.321 10.672 301.953 11.2 301.761 11.936C301.569 12.64 301.473 13.648 301.473 14.96V24.992C301.473 27.136 301.329 28.992 301.041 30.56C300.753 32.128 300.241 33.504 299.505 34.688C298.769 35.872 297.665 36.832 296.193 37.568C294.721 38.304 293.025 38.672 291.105 38.672C289.601 38.672 288.161 38.512 286.785 38.192C285.441 37.904 284.257 37.36 283.233 36.56C282.241 35.696 281.473 34.784 280.929 33.824C280.385 32.864 280.001 31.696 279.777 30.32C279.585 28.944 279.489 27.216 279.489 25.136V13.904C279.489 12.72 279.393 11.856 279.201 11.312C279.009 10.736 278.641 10.352 278.097 10.16C277.553 9.936 276.753 9.808 275.697 9.776V8.816C276.401 8.848 277.329 8.88 278.481 8.912C279.665 8.944 280.913 8.96 282.225 8.96C283.409 8.96 284.593 8.944 285.777 8.912C286.961 8.88 287.937 8.848 288.705 8.816V9.776C287.649 9.808 286.849 9.936 286.305 10.16C285.761 10.352 285.393 10.736 285.201 11.312C285.009 11.856 284.913 12.72 284.913 13.904V25.952C284.913 27.456 284.977 28.88 285.105 30.224C285.265 31.536 285.569 32.688 286.017 33.68C286.497 34.672 287.201 35.456 288.129 36.032C289.089 36.608 290.353 36.896 291.921 36.896C294.161 36.896 295.889 36.4 297.105 35.408C298.321 34.416 299.169 33.056 299.649 31.328C300.129 29.6 300.369 27.664 300.369 25.52V15.152C300.369 13.776 300.241 12.72 299.985 11.984C299.729 11.248 299.281 10.72 298.641 10.4C298.001 10.048 297.089 9.84 295.905 9.776V8.816C296.481 8.848 297.249 8.88 298.209 8.912C299.169 8.944 300.065 8.96 300.897 8.96C301.729 8.96 302.545 8.944 303.345 8.912C304.177 8.88 304.849 8.848 305.361 8.816ZM321.255 8.816V9.776C320.199 9.808 319.399 9.936 318.855 10.16C318.311 10.352 317.943 10.736 317.751 11.312C317.559 11.856 317.463 12.72 317.463 13.904V33.104C317.463 34.192 317.559 35.008 317.751 35.552C317.943 36.096 318.295 36.464 318.807 36.656C319.351 36.816 320.103 36.896 321.063 36.896H323.703C325.079 36.896 326.295 36.608 327.351 36.032C328.439 35.456 329.335 34.528 330.039 33.248C330.743 31.968 331.191 30.224 331.383 28.016H332.487C332.391 29.008 332.343 30.32 332.343 31.952C332.343 32.528 332.359 33.392 332.391 34.544C332.455 35.664 332.551 36.816 332.679 38C331.111 37.936 329.351 37.904 327.399 37.904C325.447 37.872 323.703 37.856 322.167 37.856C321.207 37.856 319.927 37.856 318.327 37.856C316.759 37.856 315.079 37.872 313.287 37.904C311.527 37.904 309.847 37.936 308.247 38V37.04C309.335 36.976 310.151 36.848 310.695 36.656C311.239 36.464 311.591 36.08 311.751 35.504C311.943 34.928 312.039 34.064 312.039 32.912V13.904C312.039 12.72 311.943 11.856 311.751 11.312C311.591 10.736 311.239 10.352 310.695 10.16C310.151 9.936 309.335 9.808 308.247 9.776V8.816C308.983 8.848 309.927 8.88 311.079 8.912C312.263 8.944 313.527 8.96 314.871 8.96C316.055 8.96 317.223 8.944 318.375 8.912C319.527 8.88 320.487 8.848 321.255 8.816ZM349.581 8.624L360.861 33.968C361.405 35.12 361.949 35.92 362.493 36.368C363.069 36.784 363.597 37.008 364.077 37.04V38C363.405 37.936 362.573 37.904 361.581 37.904C360.589 37.872 359.581 37.856 358.557 37.856C357.213 37.856 355.949 37.872 354.765 37.904C353.613 37.904 352.669 37.936 351.933 38V37.04C353.501 36.976 354.525 36.688 355.005 36.176C355.485 35.632 355.357 34.576 354.621 33.008L346.461 14.48L347.085 14L339.789 30.368C339.309 31.456 339.005 32.416 338.877 33.248C338.749 34.048 338.797 34.72 339.021 35.264C339.245 35.808 339.661 36.224 340.269 36.512C340.877 36.768 341.677 36.944 342.669 37.04V38C342.061 37.936 341.341 37.904 340.509 37.904C339.709 37.872 338.845 37.856 337.917 37.856C337.373 37.856 336.669 37.872 335.805 37.904C334.941 37.904 334.285 37.936 333.837 38V37.04C334.733 36.816 335.485 36.304 336.093 35.504C336.733 34.672 337.325 33.616 337.869 32.336L348.333 8.624C348.557 8.624 348.765 8.624 348.957 8.624C349.181 8.624 349.389 8.624 349.581 8.624ZM353.997 26.576V27.536H340.653L341.133 26.576H353.997Z" fill="#6D533A"/>
</svg>
