<svg xmlns="http://www.w3.org/2000/svg" version="1.1" xmlns:xlink="http://www.w3.org/1999/xlink" xmlns:svgjs="http://svgjs.dev/svgjs" width="1500" height="1313" viewBox="0 0 1500 1313"><g transform="matrix(1,0,0,1,0.1826838844442591,0.5315789473684163)"><svg viewBox="0 0 282 247" data-background-color="#775240" preserveAspectRatio="xMidYMid meet" height="1313" width="1500" xmlns="http://www.w3.org/2000/svg" xmlns:xlink="http://www.w3.org/1999/xlink"><g id="tight-bounds" transform="matrix(1,0,0,1,-0.034344570275521846,-0.09999999999999432)"><svg viewBox="0 0 282.06868914055104 247.2" height="247.2" width="282.06868914055104"><g><svg viewBox="0 0 395.52 346.62671811574677" height="247.2" width="282.06868914055104"><g transform="matrix(1,0,0,1,0,269.10734796789404)"><svg viewBox="0 0 395.52 77.51937014785273" height="77.51937014785273" width="395.52"><g id="textblocktransform"><svg viewBox="0 0 395.52 77.51937014785273" height="77.51937014785273" width="395.52" id="textblock"><g><svg viewBox="0 0 395.52 41.810244104261486" height="41.810244104261486" width="395.52"><g transform="matrix(1,0,0,1,0,0)"><svg width="395.52" viewBox="4.5 -25.2 241.68 25.55" height="41.810244104261486" data-palette-color="#ffffff"><path d="M14.25-25.1Q19.95-25.1 22.98-22.05 26-19 26-13.3L26-13.3Q26-6.75 22.7-3.25 19.4 0.25 13.25 0.25L13.25 0.25Q11.5 0.25 9.08 0.18 6.65 0.1 4.5 0L4.5 0 4.65-7.5 4.5-24.9 14.25-25.1ZM13.85-2.8Q17.85-2.8 20.03-5.23 22.2-7.65 22.2-12.55L22.2-12.55Q22.2-17.35 20.15-19.65 18.1-21.95 13.95-21.95L13.95-21.95Q11.5-21.95 8.2-21.75L8.2-21.75 8.1-7.8 8.15-3.1Q9.6-3 11.2-2.9 12.8-2.8 13.85-2.8L13.85-2.8ZM42.6-25.2Q48.05-25.2 50.97-22 53.9-18.8 53.9-12.95L53.9-12.95Q53.9-6.6 50.77-3.13 47.65 0.35 41.85 0.35L41.85 0.35Q36.45 0.35 33.5-2.93 30.55-6.2 30.55-12.25L30.55-12.25Q30.55-18.45 33.7-21.83 36.85-25.2 42.6-25.2L42.6-25.2ZM42.25-22.05Q38.3-22.05 36.37-19.8 34.45-17.55 34.45-12.7L34.45-12.7Q34.45-7.5 36.35-5.15 38.25-2.8 42.15-2.8L42.15-2.8Q46.15-2.8 48.1-5.1 50.05-7.4 50.05-12.3L50.05-12.3Q50.05-17.35 48.12-19.7 46.2-22.05 42.25-22.05L42.25-22.05ZM71.45-25.15Q75.34-25.15 79.3-23.45L79.3-23.45 78.05-19.85 77.59-19.85Q75.75-21.05 74.2-21.53 72.65-22 70.84-22L70.84-22Q66.59-22 64.47-19.6 62.35-17.2 62.35-12.1L62.35-12.1Q62.35-7.2 64.3-5.03 66.25-2.85 70.5-2.85L70.5-2.85Q71.75-2.85 72.9-3.08 74.05-3.3 75.7-3.9L75.7-3.9 75.7-6.4 75.65-9.95 79.09-10.2 79.09-1.2Q74.05 0.3 70.34 0.3L70.34 0.3Q64.45 0.3 61.42-2.88 58.4-6.05 58.4-11.95L58.4-11.95Q58.4-18.35 61.82-21.75 65.25-25.15 71.45-25.15L71.45-25.15ZM102.54-25.15Q105.59-25.15 108.64-23.95L108.64-23.95 107.99-20.25 107.39-20.1Q105.99-21.2 104.74-21.73 103.49-22.25 102.14-22.25L102.14-22.25Q99.99-22.25 98.74-21.13 97.49-20 97.49-18.55L97.49-18.55Q97.49-17.1 98.72-16.2 99.94-15.3 102.49-14.2L102.49-14.2Q104.74-13.2 106.07-12.4 107.39-11.6 108.37-10.28 109.34-8.95 109.34-7.05L109.34-7.05Q109.34-5.1 108.29-3.43 107.24-1.75 105.22-0.73 103.19 0.3 100.39 0.3L100.39 0.3Q98.64 0.3 96.72-0.13 94.79-0.55 93.14-1.4L93.14-1.4 93.59-5.35 94.09-5.55Q95.49-4.15 97.37-3.38 99.24-2.6 100.84-2.6L100.84-2.6Q102.94-2.6 104.29-3.73 105.64-4.85 105.64-6.45L105.64-6.45Q105.64-7.95 104.42-8.85 103.19-9.75 100.59-10.95L100.59-10.95Q98.44-11.9 97.07-12.7 95.69-13.5 94.74-14.83 93.79-16.15 93.79-18.05L93.79-18.05Q93.79-20.05 94.87-21.65 95.94-23.25 97.92-24.2 99.89-25.15 102.54-25.15L102.54-25.15ZM137.29-24.9L137.14-7.8 137.24 0 133.54 0 133.69-7.5 133.64-10.9 120.09-10.85 120.04-7.8 120.14 0 116.44 0 116.59-7.5 116.44-24.9 120.19-24.9 120.09-14.2 126.84-14.15 133.64-14.2 133.54-24.9 137.29-24.9ZM154.79-3L161.44-3.2 161.74-2.9 161.39 0 146.24 0 146.39-7.5 146.24-24.9 161.49-24.9 161.74-24.6 161.44-21.7 155.14-21.9 149.94-21.85 149.89-14.3 154.84-14.25 159.19-14.4 159.44-14.05 159.14-11.1 154.54-11.25 149.89-11.2 149.84-7.8 149.89-3.05 154.79-3ZM181.18-3.15L181.38-2.8 181.13 0 167.88 0 168.03-7.5 167.88-24.9 171.63-24.9 171.48-7.8 171.58-3.15 181.18-3.15ZM199.93-24.9L200.13-24.6 199.88-21.45 195.23-21.8 192.73-21.8 192.58-7.8 192.73 0 188.98 0 189.13-7.5 189.03-21.8 186.53-21.8 181.78-21.45 181.48-21.8 181.78-24.9 199.93-24.9ZM214.78-3L221.43-3.2 221.73-2.9 221.38 0 206.23 0 206.38-7.5 206.23-24.9 221.48-24.9 221.73-24.6 221.43-21.7 215.13-21.9 209.93-21.85 209.88-14.3 214.83-14.25 219.18-14.4 219.43-14.05 219.13-11.1 214.53-11.25 209.88-11.2 209.83-7.8 209.88-3.05 214.78-3ZM239.43-10.05Q242.48-5.4 246.18-0.9L246.18-0.9 246.13-0.4Q244.03 0.25 242.68 0.35L242.68 0.35 242.03-0.05Q238.23-5.8 236.28-9.1L236.28-9.1 231.58-9.05 231.58-7.8 231.68 0 227.98 0 228.13-7.5 227.98-24.9 236.48-24.95Q240.43-24.95 242.55-23.1 244.68-21.25 244.68-17.75L244.68-17.75Q244.68-15.2 243.3-13.2 241.93-11.2 239.43-10.05L239.43-10.05ZM231.68-21.9L231.63-12.15 236.33-12Q240.78-13.25 240.78-17.45L240.78-17.45Q240.78-19.65 239.48-20.75 238.18-21.85 235.53-21.95L235.53-21.95 231.68-21.9Z" opacity="1" transform="matrix(1,0,0,1,0,0)" fill="#ffffff" class="wordmark-text-0" data-fill-palette-color="primary" id="text-0"></path></svg></g></svg></g><g transform="matrix(1,0,0,1,0,51.68063929141912)"><svg viewBox="0 0 395.52 25.8387308564336" height="25.8387308564336" width="395.52"><g transform="matrix(1,0,0,1,0,0)"><svg width="395.52" viewBox="1.1 -37.9 590.09 38.55" height="25.8387308564336" data-palette-color="#ffffff"><path d="M5.75 0L5.75-21.9 1.1-21.9 1.1-25.15 5.75-25.15Q5.75-28.65 6.23-31.08 6.7-33.5 7.75-35.02 8.8-36.55 10.45-37.23 12.1-37.9 14.45-37.9L14.45-37.9Q16.35-37.9 18-37.27 19.65-36.65 20.65-35.75L20.65-35.75 18.9-32.75Q17.9-33.5 16.82-33.95 15.75-34.4 14.5-34.4L14.5-34.4Q12.85-34.4 11.9-33.68 10.95-32.95 10.48-31.7 10-30.45 9.88-28.78 9.75-27.1 9.75-25.15L9.75-25.15 16-25.15 16-21.9 9.75-21.9 9.75 0 5.75 0ZM46.75-12.45L46.75-12.45Q46.75-7.6 48.93-5.23 51.1-2.85 54.8-2.85L54.8-2.85Q58.45-2.85 60.5-5.2 62.55-7.55 62.55-12.25L62.55-12.25Q62.55-17.25 60.38-19.7 58.2-22.15 54.45-22.15L54.45-22.15Q50.7-22.15 48.73-19.73 46.75-17.3 46.75-12.45ZM42.5-12.5L42.5-12.5Q42.5-16.3 43.7-18.82 44.9-21.35 46.75-22.88 48.6-24.4 50.73-25.03 52.85-25.65 54.75-25.65L54.75-25.65Q56.55-25.65 58.68-25.08 60.8-24.5 62.6-23.03 64.4-21.55 65.6-19.07 66.8-16.6 66.8-12.8L66.8-12.8Q66.8-8.85 65.58-6.25 64.35-3.65 62.5-2.13 60.65-0.6 58.5 0.03 56.35 0.65 54.5 0.65L54.5 0.65Q52.6 0.65 50.5 0.05 48.4-0.55 46.63-2.02 44.85-3.5 43.68-6.05 42.5-8.6 42.5-12.5ZM96.41 0L96.41-21.1Q96.41-22.25 96.16-24.7L96.16-24.7 99.86-25.2 100.26-21.55 100.31-21.55Q101.21-22.7 102.06-23.55 102.91-24.4 103.83-25.03 104.76-25.65 105.61-25.65L105.61-25.65Q106.76-25.7 108.81-25.4L108.81-25.4 107.91-21.55Q106.26-21.85 105.61-21.8L105.61-21.8Q104.76-21.8 103.81-21 102.86-20.2 102.16-19.3L102.16-19.3Q101.26-18.2 100.41-16.8L100.41-16.8 100.41 0 96.41 0ZM154.06-3.95L154.81-0.6Q153.66-0.25 152.44 0 151.21 0.25 149.74 0.45 148.26 0.65 146.66 0.65L146.66 0.65Q144.16 0.65 142.01-0.05 139.86-0.75 138.26-2.3 136.66-3.85 135.74-6.33 134.81-8.8 134.81-12.4L134.81-12.4Q134.81-15.65 135.71-18.13 136.61-20.6 138.19-22.28 139.76-23.95 141.89-24.8 144.01-25.65 146.51-25.65L146.51-25.65Q148.96-25.65 150.76-24.7 152.56-23.75 153.74-22.13 154.91-20.5 155.49-18.32 156.06-16.15 156.06-13.75L156.06-13.75 155.31-11.55 139.16-11.55Q139.16-10 139.56-8.45 139.96-6.9 140.94-5.65 141.91-4.4 143.49-3.63 145.06-2.85 147.41-2.85L147.41-2.85Q148.91-2.85 150.16-3.03 151.41-3.2 152.34-3.43 153.26-3.65 154.06-3.95L154.06-3.95ZM139.31-14.75L151.91-14.75Q151.91-15.1 151.76-16.3 151.61-17.5 151.06-18.8 150.51-20.1 149.36-21.13 148.21-22.15 146.31-22.15L146.31-22.15Q144.21-22.15 142.86-21.28 141.51-20.4 140.71-19.2 139.91-18 139.61-16.75 139.31-15.5 139.31-14.75L139.31-14.75ZM191.41 0L182.16-25.15 186.56-25.15 192.66-7.4 193.76-3.45 193.81-3.45 194.96-7.4 201.46-25.15 205.66-25.15 195.91 0 191.41 0ZM251.07-3.95L251.82-0.6Q250.67-0.25 249.44 0 248.22 0.25 246.74 0.45 245.27 0.65 243.67 0.65L243.67 0.65Q241.17 0.65 239.02-0.05 236.87-0.75 235.27-2.3 233.67-3.85 232.74-6.33 231.82-8.8 231.82-12.4L231.82-12.4Q231.82-15.65 232.72-18.13 233.62-20.6 235.19-22.28 236.77-23.95 238.89-24.8 241.02-25.65 243.52-25.65L243.52-25.65Q245.97-25.65 247.77-24.7 249.57-23.75 250.74-22.13 251.92-20.5 252.49-18.32 253.07-16.15 253.07-13.75L253.07-13.75 252.32-11.55 236.17-11.55Q236.17-10 236.57-8.45 236.97-6.9 237.94-5.65 238.92-4.4 240.49-3.63 242.07-2.85 244.42-2.85L244.42-2.85Q245.92-2.85 247.17-3.03 248.42-3.2 249.34-3.43 250.27-3.65 251.07-3.95L251.07-3.95ZM236.32-14.75L248.92-14.75Q248.92-15.1 248.77-16.3 248.62-17.5 248.07-18.8 247.52-20.1 246.37-21.13 245.22-22.15 243.32-22.15L243.32-22.15Q241.22-22.15 239.87-21.28 238.52-20.4 237.72-19.2 236.92-18 236.62-16.75 236.32-15.5 236.32-14.75L236.32-14.75ZM282.32 0L282.32-21.1Q282.32-22.25 282.07-24.7L282.07-24.7 285.77-25.2 286.17-21.55 286.22-21.55Q287.12-22.7 287.97-23.55 288.82-24.4 289.75-25.03 290.67-25.65 291.52-25.65L291.52-25.65Q292.67-25.7 294.72-25.4L294.72-25.4 293.82-21.55Q292.17-21.85 291.52-21.8L291.52-21.8Q290.67-21.8 289.72-21 288.77-20.2 288.07-19.3L288.07-19.3Q287.17-18.2 286.32-16.8L286.32-16.8 286.32 0 282.32 0ZM358.08 0L358.08-37.45 362.08-37.9 362.08-22Q363.58-23 365.05-23.75 366.53-24.5 368.08-25.08 369.63-25.65 371.08-25.65L371.08-25.65Q373.13-25.65 374.5-25.18 375.88-24.7 376.73-23.6 377.58-22.5 377.95-20.7 378.33-18.9 378.33-16.2L378.33-16.2 378.33 0 374.33 0 374.33-15.75Q374.33-17.25 374.28-18.43 374.23-19.6 373.85-20.43 373.48-21.25 372.7-21.7 371.93-22.15 370.53-22.15L370.53-22.15Q369.23-22.15 367.73-21.58 366.23-21 364.88-20.25 363.53-19.5 362.08-18.5L362.08-18.5 362.08 0 358.08 0ZM411.98-12.45L411.98-12.45Q411.98-7.6 414.16-5.23 416.33-2.85 420.03-2.85L420.03-2.85Q423.68-2.85 425.73-5.2 427.78-7.55 427.78-12.25L427.78-12.25Q427.78-17.25 425.61-19.7 423.43-22.15 419.68-22.15L419.68-22.15Q415.93-22.15 413.96-19.73 411.98-17.3 411.98-12.45ZM407.73-12.5L407.73-12.5Q407.73-16.3 408.93-18.82 410.13-21.35 411.98-22.88 413.83-24.4 415.96-25.03 418.08-25.65 419.98-25.65L419.98-25.65Q421.78-25.65 423.91-25.08 426.03-24.5 427.83-23.03 429.63-21.55 430.83-19.07 432.03-16.6 432.03-12.8L432.03-12.8Q432.03-8.85 430.81-6.25 429.58-3.65 427.73-2.13 425.88-0.6 423.73 0.03 421.58 0.65 419.73 0.65L419.73 0.65Q417.83 0.65 415.73 0.05 413.63-0.55 411.86-2.02 410.08-3.5 408.91-6.05 407.73-8.6 407.73-12.5ZM461.64 0L461.64-20.6Q461.64-22.3 461.34-24.7L461.34-24.7 465.09-25.2 465.64-22.05Q466.99-23.05 468.29-23.8 469.59-24.55 471.09-25.1 472.59-25.65 474.14-25.65L474.14-25.65Q476.64-25.65 478.09-24.78 479.54-23.9 480.24-21.8L480.24-21.8Q482.29-23.25 484.51-24.45 486.74-25.65 489.14-25.65L489.14-25.65Q490.99-25.65 492.29-25.18 493.59-24.7 494.39-23.6 495.19-22.5 495.54-20.7 495.89-18.9 495.89-16.2L495.89-16.2 495.89 0 491.89 0 491.89-15.75Q491.89-17.25 491.84-18.43 491.79-19.6 491.49-20.43 491.19-21.25 490.51-21.7 489.84-22.15 488.59-22.15L488.59-22.15Q487.44-22.15 486.41-21.83 485.39-21.5 484.29-20.9 483.19-20.3 480.89-18.45L480.89-18.45 480.89 0 476.89 0 476.89-15.75Q476.89-17.25 476.84-18.43 476.79-19.6 476.49-20.43 476.19-21.25 475.51-21.7 474.84-22.15 473.59-22.15L473.59-22.15Q472.29-22.15 470.89-21.6 469.49-21.05 468.24-20.3 466.99-19.55 465.64-18.55L465.64-18.55 465.64 0 461.64 0ZM544.54-3.95L545.29-0.6Q544.14-0.25 542.92 0 541.69 0.25 540.22 0.45 538.74 0.65 537.14 0.65L537.14 0.65Q534.64 0.65 532.49-0.05 530.34-0.75 528.74-2.3 527.14-3.85 526.22-6.33 525.29-8.8 525.29-12.4L525.29-12.4Q525.29-15.65 526.19-18.13 527.09-20.6 528.67-22.28 530.24-23.95 532.37-24.8 534.49-25.65 536.99-25.65L536.99-25.65Q539.44-25.65 541.24-24.7 543.04-23.75 544.22-22.13 545.39-20.5 545.97-18.32 546.54-16.15 546.54-13.75L546.54-13.75 545.79-11.55 529.64-11.55Q529.64-10 530.04-8.45 530.44-6.9 531.42-5.65 532.39-4.4 533.97-3.63 535.54-2.85 537.89-2.85L537.89-2.85Q539.39-2.85 540.64-3.03 541.89-3.2 542.82-3.43 543.74-3.65 544.54-3.95L544.54-3.95ZM529.79-14.75L542.39-14.75Q542.39-15.1 542.24-16.3 542.09-17.5 541.54-18.8 540.99-20.1 539.84-21.13 538.69-22.15 536.79-22.15L536.79-22.15Q534.69-22.15 533.34-21.28 531.99-20.4 531.19-19.2 530.39-18 530.09-16.75 529.79-15.5 529.79-14.75L529.79-14.75ZM590.04-24.6L589.34-21.05Q587.24-21.7 585.62-21.93 583.99-22.15 582.64-22.15L582.64-22.15Q580.89-22.15 579.72-21.3 578.54-20.45 578.54-19.1L578.54-19.1Q578.59-17.9 579.59-17.05 580.59-16.2 581.92-15.53 583.24-14.85 584.87-14.05 586.49-13.25 587.92-12.25 589.34-11.25 590.24-9.85 591.14-8.45 591.19-6.5L591.19-6.5Q591.14-4.4 590.27-3.03 589.39-1.65 588.02-0.83 586.64 0 585.04 0.33 583.44 0.65 582.04 0.65L582.04 0.65Q580.24 0.65 578.32 0.45 576.39 0.25 574.19-0.4L574.19-0.4 574.94-4Q577.19-3.4 579.04-3.13 580.89-2.85 582.09-2.85L582.09-2.85Q582.99-2.85 583.87-3.05 584.74-3.25 585.44-3.63 586.14-4 586.57-4.6 586.99-5.2 586.99-5.95L586.99-5.95Q586.94-7.35 586.04-8.33 585.14-9.3 583.72-10.08 582.29-10.85 580.67-11.63 579.04-12.4 577.62-13.43 576.19-14.45 575.24-15.88 574.29-17.3 574.29-19.4L574.29-19.4Q574.29-20.9 575.07-22.08 575.84-23.25 577.07-24.03 578.29-24.8 579.77-25.23 581.24-25.65 582.64-25.65L582.64-25.65Q584.09-25.65 585.89-25.43 587.69-25.2 590.04-24.6L590.04-24.6Z" opacity="1" transform="matrix(1,0,0,1,0,0)" fill="#ffffff" class="slogan-text-1" data-fill-palette-color="secondary" id="text-1"></path></svg></g></svg></g></svg></g></svg></g><g transform="matrix(1,0,0,1,75.54432,0)"><svg viewBox="0 0 244.43135999999998 244.43135999999998" height="244.43135999999998" width="244.43135999999998"><g><svg viewBox="0 0 244.43135999999998 244.43135999999998" height="244.43135999999998" width="244.43135999999998"><g transform="matrix(1,0,0,1,64.60265593644992,78.98238596763085)"><svg viewBox="0 0 115.22604812710014 86.46658806473829" height="86.46658806473829" width="115.22604812710014"><g><svg xmlns="http://www.w3.org/2000/svg" xmlns:xlink="http://www.w3.org/1999/xlink" version="1.1" x="0" y="0" viewBox="0.8833187001706966 8.64929991235549 62.23412837492861 46.70100927029353" enable-background="new 0 0 64 64" xml:space="preserve" height="86.46658806473829" width="115.22604812710014" class="icon-cg-0" data-fill-palette-color="accent" id="cg-0"><g fill="#ffffff" data-fill-palette-color="accent"><path fill="#ffffff" d="M21.362 16.882c-0.876 0.662-1.687 1.274-2.496 1.889-2.427 1.837-4.859 3.669-7.275 5.52-0.29 0.223-0.514 0.261-0.846 0.108-0.924-0.427-1.911-0.524-2.924-0.553-1.088-0.031-2.189-0.099-3.257-0.294-0.549-0.1-1.068-0.331-1.498-0.687-0.241-0.199-0.499-0.419-0.658-0.693-0.214-0.37 0.026-0.542-0.03-0.886-0.032-0.2-0.155-0.35-0.299-0.483-0.163-0.15-0.411-0.223-0.56-0.378-0.184-0.19-0.305-0.518-0.444-0.746-0.291-0.477-0.264-0.899 0.173-1.226 0.533-0.398 1.073-0.809 1.665-1.102 2.327-1.146 4.673-2.254 7.019-3.358 0.397-0.187 0.604-0.379 0.683-0.87 0.165-1.017 0.401-2.039 0.763-3 0.395-1.051 1.128-1.154 1.931-0.355 0.401 0.399 0.728 0.874 1.115 1.346 0.099-0.205 0.179-0.389 0.275-0.564 0.224-0.405 0.42-0.831 0.692-1.202 0.69-0.942 1.351-0.93 2.016 0.027 0.725 1.044 1.035 2.255 1.261 3.475 0.167 0.895 0.416 1.669 1.158 2.289C20.399 15.615 20.829 16.264 21.362 16.882z" data-fill-palette-color="accent"></path><path fill="#ffffff" d="M23.002 18.46c0.587 0.776 1.132 1.497 1.713 2.265-3.337 2.528-6.64 5.03-9.992 7.569-0.58-0.764-1.126-1.482-1.717-2.261C16.334 23.511 19.637 21.009 23.002 18.46z" data-fill-palette-color="accent"></path><path fill="#ffffff" d="M35.47 9.704c0.37 0.488 0.713 0.94 1.087 1.432-3.67 2.778-7.316 5.539-11.011 8.337-0.375-0.492-0.718-0.941-1.091-1.43C28.136 15.257 31.77 12.505 35.47 9.704z" data-fill-palette-color="accent"></path><path fill="#ffffff" d="M63.073 52.631c-0.356-1.969-0.74-3.933-1.037-5.911-0.232-1.55-0.7-2.966-1.624-4.254-0.777-1.084-1.463-2.238-2.122-3.398-0.256-0.45-0.437-0.998-0.467-1.512-0.195-3.253-0.67-6.452-1.72-9.546-0.115-0.338-0.087-0.58 0.114-0.87 0.866-1.251 1.708-2.519 2.562-3.777 0.337-0.497 0.251-1.052-0.226-1.426-0.453-0.352-0.972-0.295-1.39 0.129-0.845 0.862-1.751 1.669-2.535 2.583-0.458 0.535-0.941 0.881-1.521 0.957-1.416-0.672-2.674-0.685-2.674-0.685-0.137-0.032-0.274-0.058-0.413-0.071-2.805-0.265-5.61-0.536-8.419-0.768-4.364-0.359-8.73-0.673-13.092-1.045-0.775-0.066-1.612-0.033-2.255-0.651-3.31 2.506-6.593 4.994-9.906 7.502 0.132 0.364 0.255 0.674 0.354 0.991 0.903 2.881 2.805 5.689 3.592 8.721 0.907 3.495-0.245 11.214-0.024 11.834 0.36 1.002 1.359 1.556 2.442 1.476 1.186-0.089 1.85-0.681 2.204-1.775 0.915-2.818 1.888-5.618 2.81-8.433 0.127-0.39 0.307-0.502 0.619-0.503 0.068 0 0.142 0.004 0.223 0.013 0.843 0.087 1.686 0.181 2.529 0.268 1.314 0.137 2.63 0.256 3.948 0.303 0.166 0.006 0.332 0.01 0.498 0.013 1.987 0.04 3.957-0.101 5.899-0.446 1.264-0.223 2.516-0.532 3.754-0.933 0.081-0.027 0.155-0.045 0.221-0.052 0.018-0.002 0.037-0.003 0.055-0.006 1.801-0.153 3.602-0.301 5.402-0.477 1.091-0.107 1.896 0.262 2.544 1.136 0.872 1.178 1.803 2.315 2.688 3.484 0.173 0.227 0.3 0.513 0.37 0.79 0.477 1.884 0.938 3.773 1.407 5.659 0.098 0.396 0.197 0.792 0.297 1.187 0.254 1.007 0.877 1.71 1.861 2.056C61.826 55.822 63.405 54.475 63.073 52.631z" data-fill-palette-color="accent"></path><path fill="#ffffff" d="M56.002 30.561c-0.087-0.227-0.168-0.524-0.242-0.9-0.032-0.165-0.068-0.326-0.107-0.481C55.796 29.636 55.91 30.097 56.002 30.561z" data-fill-palette-color="accent"></path></g></svg></g></svg></g><g id="text-0"><path d="M6.923 81.024c0.871-2.582 2.227-4.323 4.065-5.223 1.848-0.905 4.063-0.921 6.645-0.05v0c2.964 1 4.986 2.515 6.067 4.545 1.087 2.032 1.162 4.439 0.223 7.222v0c-0.269 0.796-0.608 1.737-1.018 2.824-0.401 1.083-0.79 2.105-1.165 3.067v0l-5.06-1.826-11.859-3.883zM21.983 86.409c0.611-1.812 0.533-3.395-0.235-4.75-0.768-1.355-2.262-2.407-4.482-3.156v0c-2.174-0.734-3.939-0.814-5.292-0.24-1.356 0.58-2.351 1.809-2.985 3.686v0c-0.376 1.113-0.77 2.432-1.184 3.957v0l9.461 3.269 3.207 1.038c0.266-0.638 0.544-1.312 0.833-2.021 0.29-0.709 0.516-1.304 0.677-1.783z" fill="#ffffff" data-fill-palette-color="accent"></path><path d="M23.148 50.41c1.503-2.132 3.281-3.327 5.335-3.584 2.057-0.263 4.227 0.41 6.51 2.02v0c2.484 1.751 3.973 3.716 4.468 5.894 0.504 2.177-0.043 4.399-1.64 6.666v0c-1.487 2.11-3.28 3.29-5.379 3.54-2.089 0.249-4.317-0.461-6.684-2.129v0c-2.423-1.708-3.86-3.64-4.311-5.797-0.448-2.162 0.119-4.366 1.701-6.61zM24.849 51.91c-1.09 1.546-1.46 3.007-1.109 4.382 0.349 1.366 1.473 2.718 3.37 4.056v0c2.032 1.432 3.767 2.1 5.206 2.003 1.444-0.093 2.704-0.902 3.778-2.426v0c1.102-1.563 1.471-3.041 1.108-4.433-0.36-1.398-1.497-2.772-3.412-4.122v0c-1.976-1.393-3.687-2.035-5.134-1.928-1.452 0.104-2.721 0.927-3.807 2.468z" fill="#ffffff" data-fill-palette-color="accent"></path><path d="M47.436 25.384c1.445-1.178 3.157-2.05 5.137-2.616v0l0.933 2.57-0.246 0.201c-1.051 0.117-1.933 0.321-2.647 0.612-0.719 0.296-1.413 0.716-2.08 1.259v0c-1.572 1.282-2.39 2.689-2.453 4.222-0.064 1.532 0.675 3.243 2.216 5.133v0c1.48 1.815 2.911 2.83 4.293 3.043 1.376 0.218 2.853-0.317 4.43-1.603v0c0.46-0.376 0.873-0.778 1.236-1.207 0.354-0.43 0.748-1.006 1.181-1.73v0l-1.133-1.389-1.644-1.951 1.811-1.702 4.079 5.002c-1.421 2.084-2.816 3.685-4.187 4.802v0c-2.186 1.783-4.319 2.544-6.399 2.284-2.079-0.27-4.01-1.497-5.793-3.683v0c-1.934-2.371-2.782-4.703-2.544-6.994 0.243-2.296 1.513-4.38 3.81-6.253z" fill="#ffffff" data-fill-palette-color="accent"></path><path d="M91.84 3.686c1.401-0.391 2.883-0.506 4.444-0.347v0l0.259 2.682-0.384 0.224c-0.786-0.327-1.499-0.532-2.139-0.615-0.647-0.082-1.279-0.037-1.898 0.136v0c-0.993 0.277-1.704 0.755-2.131 1.435-0.434 0.681-0.558 1.354-0.373 2.018v0c0.187 0.671 0.622 1.135 1.303 1.391 0.681 0.257 1.678 0.475 2.991 0.655v0c1.168 0.171 2.106 0.356 2.813 0.555 0.715 0.198 1.381 0.54 1.999 1.027 0.623 0.479 1.056 1.155 1.301 2.031v0c0.251 0.901 0.241 1.805-0.031 2.71-0.266 0.904-0.799 1.723-1.602 2.457-0.802 0.734-1.848 1.281-3.137 1.641v0c-0.803 0.224-1.675 0.361-2.618 0.411-0.943 0.05-1.847-0.013-2.712-0.19v0l-0.457-2.819 0.307-0.234c0.825 0.465 1.718 0.758 2.681 0.879 0.967 0.113 1.82 0.067 2.556-0.139v0c0.967-0.27 1.687-0.751 2.161-1.443 0.48-0.694 0.617-1.409 0.411-2.146v0c-0.193-0.691-0.63-1.164-1.311-1.421-0.681-0.257-1.698-0.494-3.049-0.713v0c-1.108-0.159-2.032-0.334-2.773-0.524-0.734-0.192-1.404-0.534-2.009-1.024-0.611-0.489-1.039-1.171-1.283-2.046v0c-0.257-0.921-0.242-1.819 0.046-2.693 0.294-0.876 0.835-1.658 1.622-2.345 0.785-0.694 1.789-1.212 3.012-1.553z" fill="#ffffff" data-fill-palette-color="accent"></path><path d="M130.61 0l0.119 12.263 0.177 5.591-2.653 0.05 0.011-5.38-0.087-2.437-9.709 0.215 0 2.192 0.177 5.592-2.653 0.05 0.012-5.38-0.349-12.474 2.694-0.05 0.073 7.673 4.835-0.061 4.875-0.123-0.216-7.67z" fill="#ffffff" data-fill-palette-color="accent"></path><path d="M153.01 20.238l4.644 1.07 0.153 0.263-0.765 1.949-10.514-2.758 1.474-5.174 3.058-12.098 10.583 2.777 0.114 0.252-0.736 1.957-4.334-1.285-3.615-0.917-1.405 5.234 3.421 0.929 3.048 0.694 0.106 0.282-0.746 1.997-3.162-0.946-3.231-0.806-0.658 2.348-0.824 3.301z" fill="#ffffff" data-fill-palette-color="accent"></path><path d="M179.658 32.027l0.006 0.293-1.103 1.688-8.378-4.493 2.64-4.686 5.797-11.051 2.375 1.273-5.894 10.755-1.51 2.968z" fill="#ffffff" data-fill-palette-color="accent"></path><path d="M208.412 35.269l-0.033 0.256-1.619 1.58-2.35-2.372-1.352-1.177-6.676 7.499-3.588 4.294-2.032-1.769 3.616-3.983 6.678-7.783-1.352-1.177-2.735-2.054-0.001-0.327 1.622-1.535z" fill="#ffffff" data-fill-palette-color="accent"></path><path d="M211.218 63.423l2.893 3.787-0.049 0.3-1.834 1.013-6.334-8.834 4.437-3.042 10.074-7.363 6.376 8.891-0.073 0.267-1.816 1.037-2.516-3.755-2.198-3.013-4.422 3.134 2.041 2.898 1.904 2.48-0.099 0.284-1.848 1.061-1.831-2.746-1.974-2.682-2.005 1.388-2.74 2.015z" fill="#ffffff" data-fill-palette-color="accent"></path><path d="M228.166 86.517c-1.545 2.165-2.998 4.462-4.359 6.893v0l-0.345 0.101c-0.658-0.821-1.127-1.525-1.407-2.112v0l0.109-0.537c1.897-2.691 3.41-4.759 4.54-6.204v0l-1.254-3.129-0.84 0.328-5.185 2.101-0.965-2.472 5.052-1.851 11.582-4.642 2.255 5.664c0.688 1.762 0.802 3.276 0.343 4.54-0.451 1.268-1.455 2.207-3.015 2.815v0c-1.139 0.445-2.273 0.535-3.402 0.272-1.129-0.263-2.165-0.852-3.109-1.767zM234.055 78.247l-6.52 2.512 1.121 3.181c1.332 1.76 2.934 2.275 4.804 1.545v0c0.98-0.382 1.602-0.959 1.866-1.729 0.264-0.77 0.188-1.752-0.227-2.947v0z" fill="#ffffff" data-fill-palette-color="accent"></path><path d="M21.492 158.168c0.656 2.042 0.616 3.78-0.122 5.214-0.746 1.43-2.139 2.474-4.18 3.13v0c-2.341 0.752-4.329 0.738-5.964-0.042-1.633-0.774-2.804-2.263-3.513-4.466v0c-0.201-0.624-0.428-1.376-0.682-2.256-0.252-0.873-0.482-1.7-0.689-2.48v0l4.053-1.216 9.309-3.078zM9.455 161.799c0.46 1.43 1.251 2.396 2.373 2.896 1.116 0.502 2.551 0.471 4.307-0.093v0c1.717-0.552 2.87-1.328 3.459-2.327 0.583-0.998 0.637-2.238 0.16-3.721v0c-0.282-0.878-0.649-1.897-1.101-3.058v0l-7.506 2.359-2.507 0.838c0.126 0.526 0.265 1.081 0.416 1.663 0.145 0.585 0.278 1.066 0.399 1.443z" fill="#ffffff" data-fill-palette-color="accent"></path><path d="M34.929 184.487c1.147 1.698 1.53 3.339 1.149 4.923-0.381 1.584-1.482 2.991-3.305 4.223v0c-1.981 1.338-3.841 1.885-5.579 1.641-1.738-0.243-3.217-1.268-4.437-3.073v0c-1.135-1.681-1.505-3.327-1.109-4.938 0.4-1.605 1.542-3.044 3.426-4.316v0c1.93-1.303 3.752-1.821 5.466-1.553 1.718 0.274 3.181 1.305 4.389 3.093zM33.351 185.318c-0.833-1.234-1.803-1.914-2.91-2.04-1.107-0.126-2.416 0.321-3.928 1.342v0c-1.619 1.093-2.595 2.185-2.929 3.277-0.329 1.087-0.084 2.237 0.733 3.448v0c0.841 1.245 1.827 1.931 2.959 2.056 1.122 0.124 2.447-0.33 3.976-1.362v0c1.573-1.063 2.523-2.14 2.847-3.233 0.331-1.097 0.081-2.259-0.748-3.488z" fill="#ffffff" data-fill-palette-color="accent"></path><path d="M55.229 206.457c1.117 0.953 2.033 2.152 2.749 3.597v0l-1.855 1.085-0.187-0.16c-0.237-0.795-0.522-1.451-0.853-1.967-0.326-0.512-0.747-0.987-1.261-1.426v0c-1.216-1.037-2.42-1.472-3.614-1.305-1.193 0.167-2.412 0.981-3.657 2.441v0c-1.197 1.403-1.778 2.653-1.745 3.749 0.024 1.098 0.644 2.165 1.859 3.203v0c0.358 0.306 0.728 0.567 1.109 0.784 0.385 0.212 0.887 0.434 1.506 0.666v0l0.911-1.068 1.28-1.547 1.567 1.162-3.291 3.857c-1.812-0.801-3.246-1.652-4.301-2.551v0c-1.689-1.441-2.579-2.986-2.671-4.635-0.087-1.645 0.59-3.312 2.031-5.001v0c1.56-1.829 3.243-2.812 5.049-2.951 1.811-0.134 3.602 0.555 5.374 2.067z" fill="#ffffff" data-fill-palette-color="accent"></path><path d="M95.844 226.908c1.106 0.306 2.151 0.829 3.137 1.57v0l-0.91 1.906-0.351-0.001c-0.396-0.542-0.794-0.971-1.195-1.288-0.401-0.317-0.846-0.542-1.333-0.677v0c-0.777-0.215-1.449-0.181-2.016 0.101-0.567 0.282-0.924 0.687-1.069 1.213v0c-0.146 0.527-0.04 1.013 0.319 1.46 0.35 0.451 0.931 1.002 1.743 1.652v0c0.716 0.588 1.273 1.097 1.672 1.525 0.4 0.423 0.713 0.92 0.936 1.493 0.216 0.577 0.228 1.211 0.037 1.902v0c-0.195 0.704-0.564 1.307-1.106 1.809-0.551 0.506-1.246 0.842-2.086 1.006-0.834 0.173-1.759 0.119-2.772-0.161v0c-0.632-0.175-1.275-0.438-1.929-0.789-0.656-0.345-1.24-0.754-1.754-1.23v0l0.84-2.074 0.297-0.035c0.367 0.647 0.851 1.203 1.452 1.667 0.606 0.473 1.199 0.789 1.778 0.95v0c0.757 0.21 1.439 0.179 2.045-0.093 0.6-0.273 0.98-0.699 1.141-1.279v0c0.151-0.546 0.048-1.043-0.311-1.489-0.35-0.451-0.935-1.024-1.756-1.719v0c-0.682-0.557-1.233-1.05-1.653-1.478-0.42-0.428-0.735-0.93-0.944-1.506-0.209-0.575-0.219-1.205-0.03-1.889v0c0.202-0.731 0.578-1.332 1.127-1.804 0.549-0.472 1.229-0.779 2.041-0.923 0.806-0.145 1.689-0.085 2.65 0.181z" fill="#ffffff" data-fill-palette-color="accent"></path><path d="M129.044 230.398l-0.225 9.638-0.015 4.395-2.079-0.031 0.145-4.229-0.002-1.916-7.632-0.083-0.056 1.721-0.015 4.395-2.079-0.031 0.145-4.229 0.064-9.805 2.11 0.032-0.141 6.022 3.8 0.087 3.832 0.027 0.038-6.024z" fill="#ffffff" data-fill-palette-color="accent"></path><path d="M155.448 238.002l3.597-1.065 0.21 0.114 0.23 1.635-8.262 2.179-0.999-4.112-2.58-9.459 8.311-2.192 0.181 0.122 0.249 1.629-3.456 0.795-2.838 0.77 1.067 4.126 2.702-0.681 2.344-0.714 0.191 0.162 0.265 1.646-2.537 0.585-2.518 0.696 0.459 1.86 0.711 2.578z" fill="#ffffff" data-fill-palette-color="accent"></path><path d="M184.548 225.174l0.192 0.117 0.629 1.453-6.557 3.576-1.953-3.754-4.766-8.568 1.862-1.015 4.534 8.507 1.31 2.273z" fill="#ffffff" data-fill-palette-color="accent"></path><path d="M197.917 199.004l0.193 0.046 1.078 1.415-2.082 1.607-1.052 0.944 5.215 5.933 2.997 3.216-1.57 1.409-2.766-3.203-5.424-5.965-1.052 0.944-1.859 1.931-0.26-0.028-1.034-1.413z" fill="#ffffff" data-fill-palette-color="accent"></path><path d="M222.057 188.482l2.025-3.158 0.234-0.051 1.242 1.086-4.826 7.051-3.445-2.458-8.136-5.471 4.855-7.092 0.216-0.026 1.254 1.07-2.095 2.861-1.644 2.438 3.505 2.424 1.6-2.282 1.307-2.073 0.25-0.002 1.277 1.073-1.538 2.101-1.45 2.173 1.563 1.107 2.224 1.485z" fill="#ffffff" data-fill-palette-color="accent"></path><path d="M231.613 159.255c2.035-0.483 4.081-1.089 6.14-1.817v0l0.263 0.117c-0.039 0.829-0.128 1.486-0.269 1.973v0l-0.337 0.27c-2.515 0.607-4.483 1.045-5.903 1.315v0l-0.872 2.495 0.664 0.241 4.15 1.449-0.709 1.956-3.95-1.519-9.245-3.264 1.605-4.518c0.505-1.393 1.221-2.347 2.148-2.861 0.921-0.516 2.001-0.55 3.24-0.1v0c0.899 0.326 1.613 0.861 2.143 1.605 0.536 0.746 0.847 1.633 0.932 2.658zM223.843 161.092l5.155 1.89 0.988-2.453c0.127-1.734-0.551-2.869-2.035-3.407v0c-0.783-0.284-1.45-0.268-2 0.048-0.559 0.32-1.025 0.943-1.397 1.87v0z" fill="#ffffff" data-fill-palette-color="accent"></path><path d="M1.598 123.157c0-3.813 3.091-6.903 6.904-6.904 3.813 0 6.903 3.091 6.903 6.904 0 3.813-3.091 6.903-6.903 6.903-3.813 0-6.903-3.091-6.904-6.903z" fill="#ffffff" data-fill-palette-color="accent"></path><path d="M229.026 123.157c0-3.813 3.091-6.903 6.904-6.904 3.813 0 6.903 3.091 6.903 6.904 0 3.813-3.091 6.903-6.903 6.903-3.813 0-6.903-3.091-6.904-6.903z" fill="#ffffff" data-fill-palette-color="accent"></path></g><g id="text-1"></g></svg></g></svg></g><g></g></svg></g><defs></defs></svg><rect width="282.06868914055104" height="247.2" fill="none" stroke="none" visibility="hidden"></rect></g></svg></g></svg>